<mxfile host="app.diagrams.net" modified="2022-11-22T13:10:04.921Z" agent="5.0 (Windows NT 10.0; Win64; x64) AppleWebKit/537.36 (KHTML, like Gecko) Chrome/107.0.0.0 Safari/537.36" etag="TuOJWyodcbOzFamPYzq-" version="20.5.3" type="github">
  <diagram id="lpIRsicXGhCxhsO5kbAy" name="Page-1">
    <mxGraphModel dx="1422" dy="762" grid="1" gridSize="10" guides="1" tooltips="1" connect="1" arrows="1" fold="1" page="1" pageScale="1" pageWidth="850" pageHeight="1100" math="0" shadow="0">
      <root>
        <mxCell id="0" />
        <mxCell id="1" parent="0" />
        <mxCell id="F8d8NffwwdgDo6ss0eiT-1" value="&lt;font style=&quot;font-size: 24px;&quot;&gt;40&lt;/font&gt;" style="rounded=0;whiteSpace=wrap;html=1;" parent="1" vertex="1">
          <mxGeometry x="150" y="120" width="40" height="40" as="geometry" />
        </mxCell>
        <mxCell id="F8d8NffwwdgDo6ss0eiT-3" value="&lt;font style=&quot;font-size: 24px;&quot;&gt;20&lt;/font&gt;" style="rounded=0;whiteSpace=wrap;html=1;" parent="1" vertex="1">
          <mxGeometry x="190" y="120" width="40" height="40" as="geometry" />
        </mxCell>
        <mxCell id="F8d8NffwwdgDo6ss0eiT-4" value="" style="rounded=0;whiteSpace=wrap;html=1;" parent="1" vertex="1">
          <mxGeometry x="230" y="120" width="40" height="40" as="geometry" />
        </mxCell>
        <mxCell id="F8d8NffwwdgDo6ss0eiT-5" value="" style="rounded=0;whiteSpace=wrap;html=1;" parent="1" vertex="1">
          <mxGeometry x="270" y="120" width="40" height="40" as="geometry" />
        </mxCell>
        <mxCell id="F8d8NffwwdgDo6ss0eiT-6" value="" style="rounded=0;whiteSpace=wrap;html=1;" parent="1" vertex="1">
          <mxGeometry x="310" y="120" width="40" height="40" as="geometry" />
        </mxCell>
        <mxCell id="F8d8NffwwdgDo6ss0eiT-7" value="" style="rounded=0;whiteSpace=wrap;html=1;" parent="1" vertex="1">
          <mxGeometry x="350" y="120" width="40" height="40" as="geometry" />
        </mxCell>
        <mxCell id="F8d8NffwwdgDo6ss0eiT-8" value="" style="rounded=0;whiteSpace=wrap;html=1;" parent="1" vertex="1">
          <mxGeometry x="390" y="120" width="40" height="40" as="geometry" />
        </mxCell>
        <mxCell id="F8d8NffwwdgDo6ss0eiT-9" value="" style="rounded=0;whiteSpace=wrap;html=1;" parent="1" vertex="1">
          <mxGeometry x="430" y="120" width="40" height="40" as="geometry" />
        </mxCell>
        <mxCell id="F8d8NffwwdgDo6ss0eiT-10" value="" style="rounded=0;whiteSpace=wrap;html=1;" parent="1" vertex="1">
          <mxGeometry x="470" y="120" width="40" height="40" as="geometry" />
        </mxCell>
        <mxCell id="F8d8NffwwdgDo6ss0eiT-11" value="" style="rounded=0;whiteSpace=wrap;html=1;" parent="1" vertex="1">
          <mxGeometry x="510" y="120" width="40" height="40" as="geometry" />
        </mxCell>
        <mxCell id="F8d8NffwwdgDo6ss0eiT-12" value="" style="rounded=0;whiteSpace=wrap;html=1;" parent="1" vertex="1">
          <mxGeometry x="550" y="120" width="40" height="40" as="geometry" />
        </mxCell>
        <mxCell id="F8d8NffwwdgDo6ss0eiT-13" value="" style="rounded=0;whiteSpace=wrap;html=1;" parent="1" vertex="1">
          <mxGeometry x="590" y="120" width="40" height="40" as="geometry" />
        </mxCell>
        <mxCell id="F8d8NffwwdgDo6ss0eiT-30" value="" style="group" parent="1" vertex="1" connectable="0">
          <mxGeometry x="160" y="240" width="570" height="40" as="geometry" />
        </mxCell>
        <mxCell id="F8d8NffwwdgDo6ss0eiT-14" value="&lt;font style=&quot;font-size: 24px;&quot;&gt;10&lt;/font&gt;" style="rounded=0;whiteSpace=wrap;html=1;" parent="F8d8NffwwdgDo6ss0eiT-30" vertex="1">
          <mxGeometry width="40.71428571428571" height="40" as="geometry" />
        </mxCell>
        <mxCell id="F8d8NffwwdgDo6ss0eiT-31" value="2" style="group" parent="F8d8NffwwdgDo6ss0eiT-30" vertex="1" connectable="0">
          <mxGeometry x="40.71428571428571" width="529.2857142857142" height="40" as="geometry" />
        </mxCell>
        <mxCell id="F8d8NffwwdgDo6ss0eiT-15" value="&lt;font style=&quot;font-size: 24px;&quot;&gt;20&lt;/font&gt;" style="rounded=0;whiteSpace=wrap;html=1;" parent="F8d8NffwwdgDo6ss0eiT-31" vertex="1">
          <mxGeometry width="40.71428571428571" height="40" as="geometry" />
        </mxCell>
        <mxCell id="F8d8NffwwdgDo6ss0eiT-16" value="&lt;font style=&quot;font-size: 24px;&quot;&gt;30&lt;/font&gt;" style="rounded=0;whiteSpace=wrap;html=1;" parent="F8d8NffwwdgDo6ss0eiT-31" vertex="1">
          <mxGeometry x="40.71428571428571" width="40.71428571428571" height="40" as="geometry" />
        </mxCell>
        <mxCell id="F8d8NffwwdgDo6ss0eiT-17" value="&lt;font style=&quot;font-size: 24px;&quot;&gt;40&lt;/font&gt;" style="rounded=0;whiteSpace=wrap;html=1;" parent="F8d8NffwwdgDo6ss0eiT-31" vertex="1">
          <mxGeometry x="81.42857142857142" width="40.71428571428571" height="40" as="geometry" />
        </mxCell>
        <mxCell id="F8d8NffwwdgDo6ss0eiT-18" value="&lt;span style=&quot;font-size: 24px;&quot;&gt;50&lt;/span&gt;" style="rounded=0;whiteSpace=wrap;html=1;" parent="F8d8NffwwdgDo6ss0eiT-31" vertex="1">
          <mxGeometry x="122.14285714285714" width="40.71428571428571" height="40" as="geometry" />
        </mxCell>
        <mxCell id="F8d8NffwwdgDo6ss0eiT-19" value="&lt;span style=&quot;font-size: 24px;&quot;&gt;60&lt;/span&gt;" style="rounded=0;whiteSpace=wrap;html=1;" parent="F8d8NffwwdgDo6ss0eiT-31" vertex="1">
          <mxGeometry x="162.85714285714283" width="40.71428571428571" height="40" as="geometry" />
        </mxCell>
        <mxCell id="F8d8NffwwdgDo6ss0eiT-20" value="&lt;font style=&quot;font-size: 24px;&quot;&gt;70&lt;/font&gt;" style="rounded=0;whiteSpace=wrap;html=1;" parent="F8d8NffwwdgDo6ss0eiT-31" vertex="1">
          <mxGeometry x="203.57142857142856" width="40.71428571428571" height="40" as="geometry" />
        </mxCell>
        <mxCell id="F8d8NffwwdgDo6ss0eiT-21" value="&lt;font style=&quot;font-size: 24px;&quot;&gt;80&lt;/font&gt;" style="rounded=0;whiteSpace=wrap;html=1;" parent="F8d8NffwwdgDo6ss0eiT-31" vertex="1">
          <mxGeometry x="244.28571428571428" width="40.71428571428571" height="40" as="geometry" />
        </mxCell>
        <mxCell id="F8d8NffwwdgDo6ss0eiT-22" value="&lt;font style=&quot;font-size: 24px;&quot;&gt;90&lt;/font&gt;" style="rounded=0;whiteSpace=wrap;html=1;" parent="F8d8NffwwdgDo6ss0eiT-31" vertex="1">
          <mxGeometry x="285" width="40.71428571428571" height="40" as="geometry" />
        </mxCell>
        <mxCell id="F8d8NffwwdgDo6ss0eiT-23" value="&lt;font style=&quot;font-size: 24px;&quot;&gt;95&lt;/font&gt;" style="rounded=0;whiteSpace=wrap;html=1;" parent="F8d8NffwwdgDo6ss0eiT-31" vertex="1">
          <mxGeometry x="325.71428571428567" width="40.71428571428571" height="40" as="geometry" />
        </mxCell>
        <mxCell id="F8d8NffwwdgDo6ss0eiT-24" value="&lt;font style=&quot;font-size: 24px;&quot;&gt;100&lt;/font&gt;" style="rounded=0;whiteSpace=wrap;html=1;" parent="F8d8NffwwdgDo6ss0eiT-31" vertex="1">
          <mxGeometry x="366.4285714285714" width="40.71428571428571" height="40" as="geometry" />
        </mxCell>
        <mxCell id="F8d8NffwwdgDo6ss0eiT-25" value="&lt;font style=&quot;font-size: 24px;&quot;&gt;105&lt;/font&gt;" style="rounded=0;whiteSpace=wrap;html=1;" parent="F8d8NffwwdgDo6ss0eiT-31" vertex="1">
          <mxGeometry x="407.1428571428571" width="40.71428571428571" height="40" as="geometry" />
        </mxCell>
        <mxCell id="F8d8NffwwdgDo6ss0eiT-26" value="&lt;font style=&quot;font-size: 24px;&quot;&gt;110&lt;/font&gt;" style="rounded=0;whiteSpace=wrap;html=1;" parent="F8d8NffwwdgDo6ss0eiT-31" vertex="1">
          <mxGeometry x="447.85714285714283" width="40.71428571428571" height="40" as="geometry" />
        </mxCell>
        <mxCell id="F8d8NffwwdgDo6ss0eiT-27" value="&lt;font style=&quot;font-size: 24px;&quot;&gt;120&lt;/font&gt;" style="rounded=0;whiteSpace=wrap;html=1;" parent="F8d8NffwwdgDo6ss0eiT-31" vertex="1">
          <mxGeometry x="488.57142857142856" width="40.71428571428571" height="40" as="geometry" />
        </mxCell>
        <mxCell id="F8d8NffwwdgDo6ss0eiT-33" value="Array" style="whiteSpace=wrap;html=1;fontSize=24;" parent="1" vertex="1">
          <mxGeometry x="80" y="240" width="80" height="40" as="geometry" />
        </mxCell>
        <mxCell id="F8d8NffwwdgDo6ss0eiT-36" value="Index" style="text;html=1;align=center;verticalAlign=middle;resizable=0;points=[];autosize=1;strokeColor=none;fillColor=none;fontSize=24;" parent="1" vertex="1">
          <mxGeometry x="80" y="280" width="80" height="40" as="geometry" />
        </mxCell>
        <mxCell id="F8d8NffwwdgDo6ss0eiT-37" value="0" style="text;html=1;align=center;verticalAlign=middle;resizable=0;points=[];autosize=1;strokeColor=none;fillColor=none;fontSize=24;" parent="1" vertex="1">
          <mxGeometry x="160" y="280" width="40" height="40" as="geometry" />
        </mxCell>
        <mxCell id="F8d8NffwwdgDo6ss0eiT-38" value="1" style="text;html=1;align=center;verticalAlign=middle;resizable=0;points=[];autosize=1;strokeColor=none;fillColor=none;fontSize=24;" parent="1" vertex="1">
          <mxGeometry x="200" y="280" width="40" height="40" as="geometry" />
        </mxCell>
        <mxCell id="F8d8NffwwdgDo6ss0eiT-39" value="2" style="text;html=1;align=center;verticalAlign=middle;resizable=0;points=[];autosize=1;strokeColor=none;fillColor=none;fontSize=24;" parent="1" vertex="1">
          <mxGeometry x="240" y="280" width="40" height="40" as="geometry" />
        </mxCell>
        <mxCell id="F8d8NffwwdgDo6ss0eiT-42" value="3" style="text;html=1;align=center;verticalAlign=middle;resizable=0;points=[];autosize=1;strokeColor=none;fillColor=none;fontSize=24;" parent="1" vertex="1">
          <mxGeometry x="280" y="280" width="40" height="40" as="geometry" />
        </mxCell>
        <mxCell id="F8d8NffwwdgDo6ss0eiT-43" value="4" style="text;html=1;align=center;verticalAlign=middle;resizable=0;points=[];autosize=1;strokeColor=none;fillColor=none;fontSize=24;" parent="1" vertex="1">
          <mxGeometry x="320" y="280" width="40" height="40" as="geometry" />
        </mxCell>
        <mxCell id="F8d8NffwwdgDo6ss0eiT-44" value="5" style="text;html=1;align=center;verticalAlign=middle;resizable=0;points=[];autosize=1;strokeColor=none;fillColor=none;fontSize=24;" parent="1" vertex="1">
          <mxGeometry x="360" y="280" width="40" height="40" as="geometry" />
        </mxCell>
        <mxCell id="F8d8NffwwdgDo6ss0eiT-45" value="6" style="text;html=1;align=center;verticalAlign=middle;resizable=0;points=[];autosize=1;strokeColor=none;fillColor=none;fontSize=24;" parent="1" vertex="1">
          <mxGeometry x="400" y="280" width="40" height="40" as="geometry" />
        </mxCell>
        <mxCell id="F8d8NffwwdgDo6ss0eiT-46" value="7" style="text;html=1;align=center;verticalAlign=middle;resizable=0;points=[];autosize=1;strokeColor=none;fillColor=none;fontSize=24;" parent="1" vertex="1">
          <mxGeometry x="440" y="280" width="40" height="40" as="geometry" />
        </mxCell>
        <mxCell id="F8d8NffwwdgDo6ss0eiT-47" value="8" style="text;html=1;align=center;verticalAlign=middle;resizable=0;points=[];autosize=1;strokeColor=none;fillColor=none;fontSize=24;" parent="1" vertex="1">
          <mxGeometry x="480" y="280" width="40" height="40" as="geometry" />
        </mxCell>
        <mxCell id="F8d8NffwwdgDo6ss0eiT-48" value="9" style="text;html=1;align=center;verticalAlign=middle;resizable=0;points=[];autosize=1;strokeColor=none;fillColor=none;fontSize=24;" parent="1" vertex="1">
          <mxGeometry x="520" y="280" width="40" height="40" as="geometry" />
        </mxCell>
        <mxCell id="F8d8NffwwdgDo6ss0eiT-49" value="10" style="text;html=1;align=center;verticalAlign=middle;resizable=0;points=[];autosize=1;strokeColor=none;fillColor=none;fontSize=24;" parent="1" vertex="1">
          <mxGeometry x="555" y="280" width="50" height="40" as="geometry" />
        </mxCell>
        <mxCell id="F8d8NffwwdgDo6ss0eiT-50" value="11" style="text;html=1;align=center;verticalAlign=middle;resizable=0;points=[];autosize=1;strokeColor=none;fillColor=none;fontSize=24;" parent="1" vertex="1">
          <mxGeometry x="595" y="280" width="50" height="40" as="geometry" />
        </mxCell>
        <mxCell id="F8d8NffwwdgDo6ss0eiT-51" value="12" style="text;html=1;align=center;verticalAlign=middle;resizable=0;points=[];autosize=1;strokeColor=none;fillColor=none;fontSize=24;" parent="1" vertex="1">
          <mxGeometry x="635" y="280" width="50" height="40" as="geometry" />
        </mxCell>
        <mxCell id="F8d8NffwwdgDo6ss0eiT-52" value="13" style="text;html=1;align=center;verticalAlign=middle;resizable=0;points=[];autosize=1;strokeColor=none;fillColor=none;fontSize=24;" parent="1" vertex="1">
          <mxGeometry x="675" y="280" width="50" height="40" as="geometry" />
        </mxCell>
        <mxCell id="F8d8NffwwdgDo6ss0eiT-53" value="TargetValue=105" style="text;html=1;align=center;verticalAlign=middle;resizable=0;points=[];autosize=1;strokeColor=none;fillColor=none;fontSize=24;" parent="1" vertex="1">
          <mxGeometry x="65" y="320" width="200" height="40" as="geometry" />
        </mxCell>
      </root>
    </mxGraphModel>
  </diagram>
</mxfile>
